<?xml version="1.0" encoding="UTF-8"?>
<svg width="841px" height="587px" viewBox="0 0 841 587" version="1.1" xmlns="http://www.w3.org/2000/svg" xmlns:xlink="http://www.w3.org/1999/xlink">
    <!-- Generator: Sketch 52.6 (67491) - http://www.bohemiancoding.com/sketch -->
    <title>transactions</title>
    <desc>Created with Sketch.</desc>
    <g id="transactions" stroke="none" stroke-width="1" fill="none" fill-rule="evenodd">
        <rect fill="#FFFFFF" x="0" y="0" width="841" height="587"></rect>
        <g id="Group-13" transform="translate(41.000000, 99.000000)">
            <g id="Group-7" transform="translate(348.000000, 32.000000)">
                <rect id="Rectangle" fill="#221B62" x="0" y="0.0552013916" width="64" height="64.1558442"></rect>
                <g id="Group" transform="translate(16.157895, 17.727273)" fill="#FFFFFF">
                    <path d="M3.29490847,16.3452313 C3.36498891,17.6092731 3.66032348,18.6356596 4.18092105,19.4244217 C5.17205873,20.9008225 6.91903783,21.6390118 9.42191076,21.6390118 C10.5431978,21.6390118 11.5643547,21.4772169 12.4854119,21.1536222 C14.2674574,20.5266574 15.1584668,19.4042052 15.1584668,17.7862317 C15.1584668,16.5727516 14.7830415,15.70816 14.0321796,15.192431 C13.2713063,14.6868143 12.0799566,14.2469344 10.458095,13.872778 L7.46967963,13.1901989 C5.51743875,12.7452562 4.13587362,12.2548153 3.32494279,11.7188616 C1.92333395,10.7885269 1.22254005,9.39810179 1.22254005,7.54754464 C1.22254005,5.54530249 1.90831694,3.90207284 3.2798913,2.61780641 C4.65146567,1.33353998 6.59366593,0.691416396 9.10655034,0.691416396 C11.4192049,0.691416396 13.3839307,1.25517057 15.0007866,2.38269582 C16.6176425,3.51022107 17.4260584,5.31271759 17.4260584,7.79023945 L14.617849,7.79023945 C14.4676766,6.59698402 14.1473137,5.68183151 13.6567506,5.04475446 C12.7457048,3.88183604 11.1989526,3.30038555 9.01644737,3.30038555 C7.25442483,3.30038555 5.98799012,3.6745363 5.21710526,4.42284903 C4.4462204,5.17116175 4.06078375,6.04080944 4.06078375,7.03181818 C4.06078375,8.12395027 4.51129412,8.92281268 5.41232838,9.42842938 C6.00300639,9.75202407 7.33952048,10.1565114 9.42191076,10.6419034 L12.5154462,11.3548194 C14.0071585,11.6986388 15.1584628,12.1688552 15.9693936,12.765483 C17.3710024,13.8070534 18.0717963,15.3188246 18.0717963,17.3008421 C18.0717963,19.7682516 17.1832898,21.5328275 15.40625,22.5946226 C13.6292102,23.6564176 11.564371,24.1873072 9.21167048,24.1873072 C6.46852175,24.1873072 4.32108899,23.4794545 2.76930778,22.0637277 C1.21752657,20.6581132 0.45666461,18.7519668 0.486699085,16.3452313 L3.29490847,16.3452313 Z" id="S"></path>
                    <polygon id="N" points="21.2238987 13.4916713 23.4295445 13.4916713 30.3937536 24.7731877 30.3937536 13.4916713 32.1676559 13.4916713 32.1676559 27.4181818 30.0746389 27.4181818 23.0071868 16.1461457 23.0071868 27.4181818 21.2238987 27.4181818"></polygon>
                </g>
            </g>
            <g id="Group-3" transform="translate(348.000000, 101.000000)">
                <rect id="Rectangle" fill="#0F7B63" x="0" y="0.0445224972" width="64" height="62.6382979"></rect>
                <g id="Group-2" transform="translate(16.695652, 18.746650)" fill="#FFFFFF">
                    <polygon id="T" points="19.140625 0.333085106 19.140625 3.03255319 11.40625 3.03255319 11.40625 22.9931915 8.25 22.9931915 8.25 3.03255319 0.515625 3.03255319 0.515625 0.333085106"></polygon>
                    <polygon id="N" points="18.3234375 12.7795612 20.6183594 12.7795612 27.8644531 24.2523005 27.8644531 12.7795612 29.7101563 12.7795612 29.7101563 26.9421277 27.5324219 26.9421277 20.1789063 15.4790293 20.1789063 26.9421277 18.3234375 26.9421277"></polygon>
                </g>
            </g>
            <g id="Group-3" opacity="0.8" transform="translate(284.000000, 101.000000)" fill="#0F7B63">
                <rect id="Rectangle" x="0" y="0.0445224972" width="64" height="62.6382979"></rect>
            </g>
            <g id="Group-3" opacity="0.6" transform="translate(220.000000, 101.000000)" fill="#0F7B63">
                <rect id="Rectangle" x="0" y="0.0445224972" width="64" height="62.6382979"></rect>
            </g>
            <g id="Group-3" opacity="0.4" transform="translate(156.000000, 101.000000)" fill="#0F7B63">
                <rect id="Rectangle" x="0" y="0.0445224972" width="64" height="62.6382979"></rect>
            </g>
            <g id="Group-3" opacity="0.2" transform="translate(92.000000, 101.000000)" fill="#0F7B63">
                <rect id="Rectangle" x="0" y="0.0445224972" width="64" height="62.6382979"></rect>
            </g>
            <path id="Line" d="M738.5,29.9836519 L0,29.9836519 L-1.5,29.9836519 L-1.5,26.9836519 L0,26.9836519 L738.5,26.9836519 L738.5,18.9836519 L757.5,28.4836519 L738.5,37.9836519 L738.5,29.9836519 Z" fill="#000000" fill-rule="nonzero"></path>
            <g id="Group-8" opacity="0.502464658" transform="translate(28.000000, 32.000000)">
                <rect id="Rectangle" fill="#39298C" x="0" y="0" width="64" height="64"></rect>
                <g id="Group" transform="translate(18.684211, 17.684211)" fill="#FFFFFF">
                    <path d="M3.3597561,16.7462162 C3.43089466,18.0412677 3.73068841,19.0928338 4.25914634,19.9009459 C5.26524893,21.4135661 7.03860518,22.1698649 9.57926829,22.1698649 C10.7174854,22.1698649 11.7540604,22.0041008 12.6890244,21.6725676 C14.4979765,21.030222 15.402439,19.8802335 15.402439,18.2225676 C15.402439,16.9793181 15.0213453,16.0935162 14.2591463,15.5651351 C13.4867848,15.0471145 12.2774473,14.5964434 10.6310976,14.2131081 L7.59756098,13.5137838 C5.61584375,13.0579256 4.21341875,12.5554532 3.3902439,12.0063514 C1.96747256,11.0531934 1.25609756,9.62865813 1.25609756,7.7327027 C1.25609756,5.68134109 1.95222881,3.99779937 3.3445122,2.68202703 C4.73679558,1.36625468 6.70832058,0.708378378 9.25914634,0.708378378 C11.6067191,0.708378378 13.6011097,1.28596269 15.242378,2.44114865 C16.8836464,3.5963346 17.7042683,5.44305037 17.7042683,7.98135135 L14.8536585,7.98135135 C14.7012187,6.75882272 14.3760187,5.82121948 13.8780488,5.16851351 C12.9532474,3.97706611 11.3831412,3.38135135 9.16768293,3.38135135 C7.3790561,3.38135135 6.09349985,3.76468085 5.31097561,4.53135135 C4.52845137,5.29802185 4.13719512,6.18900393 4.13719512,7.20432432 C4.13719512,8.32324884 4.59450762,9.14170912 5.50914634,9.65972973 C6.10874284,9.99126292 7.46543659,10.4056732 9.57926829,10.902973 L12.7195122,11.6333784 C14.2337474,11.9856324 15.4024349,12.4673843 16.2256098,13.0786486 C17.6483811,14.1457711 18.3597561,15.6946295 18.3597561,17.7252703 C18.3597561,20.2532108 17.4578342,22.0610756 15.6539634,23.1489189 C13.8500926,24.2367622 11.754077,24.7806757 9.36585366,24.7806757 C6.58128689,24.7806757 4.40143064,24.0554577 2.82621951,22.605 C1.25100838,21.1649027 0.478658384,19.2119943 0.509146341,16.7462162 L3.3597561,16.7462162 Z" id="S"></path>
                    <path d="M21.9405488,18.2419932 L21.9405488,16.9016216 C23.179122,16.7785917 24.0429345,16.5730054 24.5320122,16.2848564 C25.0210898,15.9967075 25.3863047,15.3151968 25.6276677,14.2403041 L26.980564,14.2403041 L26.980564,28.0908108 L25.1512957,28.0908108 L25.1512957,18.2419932 L21.9405488,18.2419932 Z" id="1"></path>
                </g>
            </g>
            <g id="Group-3" opacity="0.502464658" transform="translate(29.000000, 101.000000)">
                <rect id="Rectangle" fill="#1E4855" x="0" y="0.652202155" width="63" height="62.0307692"></rect>
                <g id="Group-2" transform="translate(15.400000, 18.182637)" fill="#FFFFFF">
                    <polygon id="T" points="18.9811198 0.237792642 18.9811198 2.87157191 11.3111979 2.87157191 11.3111979 22.3464883 8.18125 22.3464883 8.18125 2.87157191 0.511328125 2.87157191 0.511328125 0.237792642"></polygon>
                    <path d="M18.558112,16.6612876 L18.558112,15.3632107 C19.8170701,15.2440629 20.6950995,15.0449638 21.1922266,14.7659072 C21.6893536,14.4868506 22.0605793,13.8268447 22.3059147,12.7858696 L23.6810775,12.7858696 L23.6810775,26.1993311 L21.8217025,26.1993311 L21.8217025,16.6612876 L18.558112,16.6612876 Z" id="1"></path>
                </g>
            </g>
            <path d="M706.855765,0 L706.855765,1.39349701 L702.762977,1.39349701 L702.762977,11.6974121 L701.092788,11.6974121 L701.092788,1.39349701 L697,1.39349701 L697,0 L706.855765,0 Z M707.54203,3.20902455 L709.055122,3.20902455 L709.055122,11.6974121 L707.54203,11.6974121 L707.54203,3.20902455 Z M707.54203,0 L709.055122,0 L709.055122,1.62441938 L707.54203,1.62441938 L707.54203,0 Z M711.304088,3.16921035 L712.775838,3.16921035 L712.775838,4.37956204 C713.128619,3.9601837 713.448322,3.65494455 713.734956,3.46383543 C714.225542,3.14001165 714.782266,2.97810219 715.405145,2.97810219 C716.110706,2.97810219 716.678454,3.14532016 717.108406,3.47976111 C717.350943,3.67087023 717.571428,3.9522211 717.769867,4.32382216 C718.100599,3.86728372 718.489203,3.5288664 718.935691,3.30856005 C719.38218,3.08825371 719.883782,2.97810219 720.440514,2.97810219 C721.63115,2.97810219 722.441431,3.39216573 722.871383,4.22030524 C723.102895,4.66622652 723.21865,5.2660878 723.21865,6.0199071 L723.21865,11.6974121 L721.672485,11.6974121 L721.672485,5.77305906 C721.672485,5.20504029 721.525036,4.81486503 721.230133,4.60252157 C720.93523,4.3901781 720.575565,4.28400796 720.151125,4.28400796 C719.566832,4.28400796 719.063851,4.47245996 718.642168,4.84936961 C718.220485,5.22627926 718.009646,5.85533733 718.009646,6.73656271 L718.009646,11.6974121 L716.496555,11.6974121 L716.496555,6.13138686 C716.496555,5.55275092 716.424897,5.13072462 716.28158,4.86529529 C716.05558,4.46715129 715.633903,4.26808228 715.016537,4.26808228 C714.454292,4.26808228 713.943043,4.47776831 713.482774,4.89714665 C713.022506,5.31652499 712.792375,6.07564149 712.792375,7.17451891 L712.792375,11.6974121 L711.304088,11.6974121 L711.304088,3.16921035 Z M729.097382,2.97810219 C729.725773,2.97810219 730.334862,3.12010475 730.924667,3.40411413 C731.514472,3.68812352 731.96371,4.05573762 732.272393,4.50696749 C732.570052,4.936963 732.768488,5.43861691 732.867708,6.01194426 C732.955903,6.40477967 733,7.03118349 733,7.89117452 L726.509417,7.89117452 C726.536978,8.75647413 726.749194,9.45056142 727.146073,9.9734572 C727.542951,10.496353 728.157552,10.7577969 728.989894,10.7577969 C729.767115,10.7577969 730.387228,10.5109514 730.850253,10.0172528 C731.114838,9.73058914 731.30225,9.39880746 731.412494,9.02189781 L732.875976,9.02189781 C732.837391,9.33510442 732.709234,9.68413875 732.491502,10.0690113 C732.27377,10.4538838 732.029859,10.7684128 731.759761,11.0126078 C731.307761,11.4372948 730.748281,11.7239541 730.081305,11.8725946 C729.723012,11.9575319 729.317871,12 728.86587,12 C727.76343,12 726.829126,11.6138061 726.062931,10.8414068 C725.296735,10.0690074 724.913643,8.98739912 724.913643,7.59654944 C724.913643,6.22693409 725.299491,5.11480188 726.071199,4.26011944 C726.842907,3.405437 727.851624,2.97810219 729.097382,2.97810219 Z M731.470372,6.75248839 C731.409738,6.13138376 731.269179,5.63503835 731.048691,5.26343729 C730.640788,4.57332104 729.960042,4.22826808 729.006431,4.22826808 C728.322918,4.22826808 727.749658,4.46582377 727.286633,4.94094227 C726.823608,5.41606077 726.578319,6.01990344 726.550758,6.75248839 L731.470372,6.75248839 Z" id="Time" fill="#15112C"></path>
            <g id="Group-6" opacity="0.8" transform="translate(284.000000, 32.000000)">
                <rect id="Rectangle" fill="#5645F5" x="0" y="0" width="64" height="64"></rect>
                <g id="Group" transform="translate(10.000000, 19.000000)" fill="#FFFFFF">
                    <path d="M3.26960359,15.0275032 C3.33458752,16.2066917 3.60844425,17.1641784 4.091182,17.899992 C5.01024042,19.2772842 6.63017262,19.96592 8.9510272,19.96592 C9.99077005,19.96592 10.9376645,19.8149861 11.791739,19.5131138 C13.4441875,18.9282363 14.2703993,17.8811327 14.2703993,16.3717714 C14.2703993,15.2397504 13.9222763,14.4331976 13.22602,13.9520886 C12.5204802,13.4804132 11.41577,13.0700618 9.91185619,12.721022 L7.14076968,12.0842634 C5.3305031,11.669189 4.04941059,11.2116708 3.2974537,10.7116948 C1.99777514,9.84381209 1.3479456,8.54672419 1.3479456,6.82039222 C1.3479456,4.95255763 1.98385022,3.41963556 3.25567853,2.22158004 C4.52750684,1.02352452 6.32846298,0.42450574 8.65860098,0.42450574 C10.8030706,0.42450574 12.6249141,0.950415925 14.1241862,2.00225207 C15.6234583,3.05408822 16.373083,4.73558581 16.373083,7.04679528 L13.7690972,7.04679528 C13.6298459,5.93364133 13.332781,5.07992166 12.8778935,4.48561065 C12.0331025,3.40075722 10.5988358,2.85833865 8.57505064,2.85833865 C6.94116901,2.85833865 5.76683421,3.20737321 5.052011,3.90545281 C4.33718778,4.6035324 3.97978154,5.41480193 3.97978154,6.33928571 C3.97978154,7.35810458 4.3975291,8.10334054 5.23303675,8.57501594 C5.78075843,8.8768882 7.02007619,9.25422286 8.9510272,9.70703125 L11.8195891,10.3720902 C13.2028185,10.6928295 14.2703955,11.1314811 15.0223524,11.688058 C16.322031,12.6597094 16.9718605,14.0699977 16.9718605,15.9189652 C16.9718605,18.2207412 16.1479695,19.8668637 14.5001628,20.857382 C12.852356,21.8479004 10.9376797,22.3431521 8.75607639,22.3431521 C6.21241977,22.3431521 4.2211564,21.6828164 2.78222656,20.3621253 C1.34329672,19.0508677 0.637767511,17.2726781 0.665617766,15.0275032 L3.26960359,15.0275032 Z" id="S"></path>
                    <path d="M19.8947302,12.3654984 L21.9399731,12.3654984 L28.3977186,22.8897032 L28.3977186,12.3654984 L30.0426161,12.3654984 L30.0426161,25.3571429 L28.1018112,25.3571429 L21.5483308,14.8417819 L21.5483308,25.3571429 L19.8947302,25.3571429 L19.8947302,12.3654984 Z M32.1487811,19.4936573 L36.517768,19.4936573 L36.517768,21.1297732 L32.1487811,21.1297732 L32.1487811,19.4936573 Z M39.0503879,16.3894591 L39.0503879,15.1690051 C40.1818045,15.0569822 40.9708832,14.8697888 41.4176478,14.6074194 C41.8644123,14.3450499 42.1980301,13.7245113 42.4185113,12.7457848 L43.6543602,12.7457848 L43.6543602,25.3571429 L41.9833532,25.3571429 L41.9833532,16.3894591 L39.0503879,16.3894591 Z" id="N-1"></path>
                </g>
            </g>
            <g id="Group-6" opacity="0.6" transform="translate(220.000000, 32.000000)" fill="#5645F5">
                <rect id="Rectangle" x="0" y="0" width="64" height="64"></rect>
            </g>
            <g id="Group-6" opacity="0.4" transform="translate(156.000000, 32.000000)" fill="#5645F5">
                <rect id="Rectangle" x="0" y="0" width="64" height="64"></rect>
            </g>
            <g id="Group-6" opacity="0.2" transform="translate(92.000000, 32.000000)" fill="#5645F5">
                <rect id="Rectangle" x="0" y="0" width="64" height="64"></rect>
            </g>
        </g>
        <g id="Group-9" transform="translate(129.000000, 305.000000)">
            <path id="Line" d="M28.6811937,209.421727 L106.69849,73.2542981 L107.444192,71.952788 L110.047212,73.4441917 L109.30151,74.7457019 L31.284214,210.913131 L38.2256017,214.890207 L20.537147,226.653224 L21.7398061,205.44465 L28.6811937,209.421727 Z" fill="#000000" fill-rule="nonzero"></path>
            <path id="Line" d="M184.551474,211.659586 L106.696065,74.7414533 L105.954611,73.4375182 L108.562482,71.9546115 L109.303935,73.2585467 L187.159344,210.176679 L194.113665,206.222262 L195.247151,227.434645 L177.597153,215.614004 L184.551474,211.659586 Z" fill="#000000" fill-rule="nonzero"></path>
            <path id="Line" d="M403.519619,209.030753 L481.682214,65.2834536 L482.39876,63.9656671 L485.034333,65.3987599 L484.317786,66.7165464 L406.155192,210.463846 L413.183387,214.285427 L395.761151,226.439262 L396.491425,205.209173 L403.519619,209.030753 Z" fill="#000000" fill-rule="nonzero"></path>
            <path id="Line" d="M559.119957,211.425484 L481.679508,67.7115487 L480.96796,66.391057 L483.608943,64.9679595 L484.320492,66.2884513 L561.76094,210.002387 L568.803563,206.20746 L569.453399,227.440164 L552.077334,215.220411 L559.119957,211.425484 Z" fill="#000000" fill-rule="nonzero"></path>
            <path d="M132,57 C229.196013,23.9354839 330.529346,23.6688345 436,56.200052" id="Path-3" stroke="#000000" stroke-width="3"></path>
            <path id="Line" d="M447.475296,59.1552208 L426.464845,62.28746 L432.363234,44.226203 L447.475296,59.1552208 Z" fill="#000000" fill-rule="nonzero"></path>
            <g id="Group-14" transform="translate(0.000000, 163.000000)">
                <path d="M100,81 C100,84.8659932 77.6142375,88 50,88 C22.3857625,88 0,84.8659932 0,81 L0,6 L100,6 L100,81 Z" id="Combined-Shape" fill="#E1E4E7"></path>
                <ellipse id="Oval" fill="#D8D8D8" cx="50" cy="7" rx="50" ry="7"></ellipse>
            </g>
            <g id="Group-4" transform="translate(20.000000, 216.000000)">
                <g id="Fill-2" transform="translate(0.000000, 2.654126)" fill="#221B62">
                    <path d="M11.2744001,2.20826295 C11.5764092,1.87751446 11.8497682,1.50059062 12.109375,1.0569224 L10.6967399,0.3698191 C10.4691497,0.733869811 10.2203583,1.03880207 9.95699116,1.27650022 C9.56129577,1.63365961 9.14422014,1.84176354 8.71740344,1.89500513 C7.89503459,1.99764035 7.31837722,1.74920294 6.47878243,1.2229438 C5.59692856,0.67023877 4.59725064,0.0438280768 3.17870646,0.220903574 C2.31765981,0.328401204 1.52913404,0.768361403 0.834974945,1.52861067 C0.53310903,1.85925421 0.259714274,2.23617805 0,2.67995121 L1.41259926,3.36701953 C1.64011784,3.00279392 1.88869434,2.69765177 2.15181083,2.45970875 C2.54116737,2.10758668 2.95827881,1.9016166 3.39154181,1.84750048 C3.5159554,1.83200375 3.63471058,1.82434284 3.74941891,1.82434284 C4.39909853,1.82434284 4.92121304,2.06928212 5.63062838,2.51392982 C6.45468043,3.03042917 7.4800003,3.67317614 8.93120573,3.49211277 C9.80815325,3.38265619 10.5965,2.95070672 11.2744001,2.20826295 Z M11.2744001,6.33482027 C11.5763734,6.00414284 11.8497324,5.62722024 12.109375,5.18351851 L10.6967399,4.49641747 C10.4691497,4.86046698 10.2203583,5.16536326 9.95699116,5.40306061 C9.56129577,5.76021882 9.14422014,5.96832207 8.71740344,6.02163345 C7.89503459,6.12412841 7.31837722,5.87579676 6.47878243,5.34950437 C5.59696437,4.79680117 4.59746552,4.17049749 3.17870646,4.34746746 C2.31765981,4.45496473 1.52913404,4.89495846 0.834974945,5.65520522 C0.53310903,5.98581268 0.259750087,6.36273528 0,6.80650698 L1.41259926,7.49360801 C1.64011784,7.12938359 1.88869434,6.82424245 2.15181083,6.58630022 C2.54116737,6.23414433 2.95831462,6.02817493 3.39154181,5.97405899 C3.5159554,5.95856231 3.63467476,5.95090143 3.74941891,5.95090143 C4.39906272,5.95090143 4.92117723,6.1958399 5.63062838,6.64052111 C6.45471624,7.15701875 7.48039424,7.79986855 8.93120573,7.61866585 C9.80815325,7.50917465 10.5965,7.07726158 11.2744001,6.33482027 Z M11.2744001,10.3027168 C11.5764092,9.97196925 11.8497682,9.5950465 12.109375,9.15141454 L10.6967399,8.46431323 C10.4691497,8.82836289 10.2203583,9.13329427 9.95699116,9.37095674 C9.56129577,9.7281151 9.14422014,9.93621843 8.71740344,9.98949485 C7.89503459,10.0921997 7.31837722,9.84369308 6.47878243,9.31740048 C5.59696437,8.76473203 4.59746552,8.13832315 3.17870646,8.31536315 C2.31765981,8.42286047 1.52913404,8.86285438 0.834974945,9.62310145 C0.533073217,9.95374403 0.259714274,10.3306668 0,10.7744037 L1.41259926,11.461505 C1.64011784,11.0972454 1.88869434,10.7921042 2.15181083,10.5541968 C2.54116737,10.2020408 2.95827881,9.99607132 3.39154181,9.94195535 C3.5159554,9.92645867 3.63467476,9.91879778 3.74941891,9.91879778 C4.39906272,9.91879778 4.92117723,10.1637364 5.63062838,10.6083828 C6.45471624,11.1249156 7.48039424,11.7676957 8.93120573,11.5865629 C9.80815325,11.4770716 10.5965,11.0451234 11.2744001,10.3027168 Z" id="Fill-1"></path>
                </g>
                <path d="M17.5064697,4.51714081 L17.5064697,3.22550061 C18.7958438,3.10694367 19.6950862,2.90883175 20.2042236,2.63115892 C20.7133611,2.35348609 21.0935555,1.69675289 21.3448181,0.660939633 L22.7532043,0.660939633 L22.7532043,14.0078883 L20.8489075,14.0078883 L20.8489075,4.51714081 L17.5064697,4.51714081 Z M27.3056641,4.51714081 L27.3056641,3.22550061 C28.5950382,3.10694367 29.4942805,2.90883175 30.003418,2.63115892 C30.5125554,2.35348609 30.8927498,1.69675289 31.1440125,0.660939633 L32.5523987,0.660939633 L32.5523987,14.0078883 L30.6481018,14.0078883 L30.6481018,4.51714081 L27.3056641,4.51714081 Z M42.1532288,0.604781364 C43.9914134,0.604781364 45.3204406,1.3192322 46.1403503,2.74815532 C46.7751191,3.85260681 47.0924988,5.36574505 47.0924988,7.28761543 C47.0924988,9.1096484 46.8048735,10.6165469 46.2296143,11.8083561 C45.3964802,13.518072 44.0343926,14.3729171 42.1433105,14.3729171 C40.4373694,14.3729171 39.1678508,13.6740656 38.3347168,12.2763417 C37.6404384,11.1094918 37.2933044,9.54331575 37.2933044,7.57776649 C37.2933044,6.0552458 37.5015848,4.74801915 37.9181519,3.65604734 C38.6983885,1.62185985 40.1100667,0.604781364 42.1532288,0.604781364 Z M42.1333923,12.8379244 C43.0590968,12.8379244 43.7963433,12.4510602 44.3451538,11.6773202 C44.8939643,10.9035801 45.1683655,9.46219897 45.1683655,7.35313341 C45.1683655,5.83061272 44.9700032,4.57798384 44.5732727,3.59520921 C44.1765422,2.61243458 43.4062354,2.12105464 42.2623291,2.12105464 C41.2109933,2.12105464 40.4423395,2.5874756 39.9563446,3.52033152 C39.4703497,4.45318744 39.227356,5.82749135 39.227356,7.64328447 C39.227356,9.0098092 39.3827397,10.1080044 39.693512,10.937903 C40.1695886,12.2045903 40.9828739,12.8379244 42.1333923,12.8379244 Z" id="110" fill="#15112C"></path>
            </g>
            <path d="M49.0686499,196.443159 L46.5171625,189.374404 L43.805492,196.443159 L49.0686499,196.443159 Z M45.3272311,187 L47.9016018,187 L54,203 L51.5057208,203 L49.8009153,198.207624 L43.1533181,198.207624 L41.3340961,203 L39,203 L45.3272311,187 Z" id="A" fill="#15112C"></path>
            <g id="Group-15" transform="translate(116.000000, 163.000000)">
                <path d="M100,81 C100,84.8659932 77.6142375,88 50,88 C22.3857625,88 0,84.8659932 0,81 L0,6 L100,6 L100,81 Z" id="Combined-Shape" fill="#E1E4E7"></path>
                <ellipse id="Oval" fill="#D8D8D8" cx="50" cy="7" rx="50" ry="7"></ellipse>
            </g>
            <g id="Group-4" transform="translate(144.937500, 218.264078)">
                <g id="Fill-2" transform="translate(0.000000, 2.549515)" fill="#221B62">
                    <path d="M11.2744001,2.35548048 C11.5764092,2.00268209 11.8497682,1.60063 12.109375,1.1273839 L10.6967399,0.394473706 C10.4691497,0.782794465 10.2203583,1.10805554 9.95699116,1.36160023 C9.56129577,1.74257025 9.14422014,1.96454778 8.71740344,2.0213388 C7.89503459,2.13081638 7.31837722,1.86581647 6.47878243,1.30447339 C5.59692856,0.714921355 4.59725064,0.0467499486 3.17870646,0.235630479 C2.31765981,0.350294618 1.52913404,0.819585497 0.834974945,1.63051805 C0.53310903,1.98320449 0.259714274,2.38525659 0,2.85861463 L1.41259926,3.5914875 C1.64011784,3.20298018 1.88869434,2.87749522 2.15181083,2.62368934 C2.54116737,2.24809246 2.95827881,2.02839104 3.39154181,1.97066718 C3.5159554,1.95413734 3.63471058,1.9459657 3.74941891,1.9459657 C4.39909853,1.9459657 4.92121304,2.20723426 5.63062838,2.68152514 C6.45468043,3.23245778 7.4800003,3.91805455 8.93120573,3.72492029 C9.80815325,3.6081666 10.5965,3.1474205 11.2744001,2.35548048 Z M11.2744001,6.75714162 C11.5763734,6.40441903 11.8497324,6.00236826 12.109375,5.52908641 L10.6967399,4.79617864 C10.4691497,5.18449812 10.2203583,5.50972081 9.95699116,5.76326466 C9.56129577,6.14423341 9.14422014,6.36621021 8.71740344,6.42307568 C7.89503459,6.53240363 7.31837722,6.26751654 6.47878243,5.706138 C5.59696437,5.11658792 4.59746552,4.44853066 3.17870646,4.63729862 C2.31765981,4.75196238 1.52913404,5.22128903 0.834974945,6.0322189 C0.53310903,6.38486686 0.259750087,6.78691763 0,7.26027411 L1.41259926,7.99318188 C1.64011784,7.60467583 1.88869434,7.27919195 2.15181083,7.02538691 C2.54116737,6.64975395 2.95831462,6.43005326 3.39154181,6.37232959 C3.5159554,6.3557998 3.63467476,6.34762819 3.74941891,6.34762819 C4.39906272,6.34762819 4.92117723,6.60889589 5.63062838,7.08322252 C6.45471624,7.63415334 7.48039424,8.31985979 8.93120573,8.12657691 C9.80815325,8.00978629 10.5965,7.54907902 11.2744001,6.75714162 Z M11.2744001,10.9895646 C11.5764092,10.6367672 11.8497682,10.2347163 12.109375,9.76150885 L10.6967399,9.02860078 C10.4691497,9.41692041 10.2203583,9.74218055 9.95699116,9.99568719 C9.56129577,10.3766561 9.14422014,10.598633 8.71740344,10.6554612 C7.89503459,10.7650131 7.31837722,10.4999393 6.47878243,9.93856051 C5.59696437,9.3490475 4.59746552,8.68087803 3.17870646,8.8697207 C2.31765981,8.9843845 1.52913404,9.45371134 0.834974945,10.2646415 C0.533073217,10.617327 0.259714274,11.0193779 0,11.4926973 L1.41259926,12.2256053 C1.64011784,11.8370618 1.88869434,11.5115778 2.15181083,11.25781 C2.54116737,10.8821769 2.95827881,10.6624761 3.39154181,10.6047524 C3.5159554,10.5882226 3.63467476,10.580051 3.74941891,10.580051 C4.39906272,10.580051 4.92117723,10.8413188 5.63062838,11.3156083 C6.45471624,11.8665766 7.48039424,12.5522087 8.93120573,12.3590004 C9.80815325,12.2422097 10.5965,11.781465 11.2744001,10.9895646 Z" id="Fill-1"></path>
                </g>
                <path d="M18.0718079,11.0161465 C18.190827,12.041144 18.6635904,12.7499791 19.4901123,13.1426729 C19.9132915,13.3423478 20.4025851,13.4421837 20.9580078,13.4421837 C22.0159558,13.4421837 22.7994868,13.1027416 23.3086243,12.4238471 C23.8177617,11.7449526 24.0723267,10.9928553 24.0723267,10.1675326 C24.0723267,9.16915839 23.7698242,8.3970939 23.1648102,7.85131599 C22.5597962,7.30553808 21.8341208,7.03265322 20.9877625,7.03265322 C20.3728302,7.03265322 19.8455171,7.15245633 19.4058075,7.39206614 C18.9660979,7.63167596 18.5908626,7.96446237 18.2800903,8.39043538 L16.7328491,8.30058215 L17.8139343,0.60315534 L25.1930847,0.60315534 L25.1930847,2.34031781 L19.1528931,2.34031781 L18.5478821,6.31382737 C18.8784908,6.0609059 19.1925644,5.87121764 19.4901123,5.7447569 C20.0190863,5.52511457 20.6307033,5.41529505 21.3249817,5.41529505 C22.6275802,5.41529505 23.7317968,5.8379338 24.6376648,6.68322398 C25.5435328,7.52851416 25.99646,8.60008643 25.99646,9.89797292 C25.99646,11.249106 25.5815522,12.4404814 24.7517242,13.4721348 C23.9218963,14.5037882 22.5978281,15.0196071 20.77948,15.0196071 C19.6223494,15.0196071 18.5991306,14.6918125 17.7097931,14.0362134 C16.8204556,13.3806143 16.3228969,12.3739354 16.2171021,11.0161465 L18.0718079,11.0161465 Z M27.4941101,14.6601942 C27.5602319,13.428866 27.8131438,12.3572937 28.2528534,11.4454452 C28.692563,10.5335968 29.5504799,9.7049586 30.8266296,8.95950584 L32.7309265,7.85131599 C33.5838971,7.35212888 34.1822899,6.92616226 34.526123,6.57340337 C35.0683214,6.02096963 35.3394165,5.38867544 35.3394165,4.67650182 C35.3394165,3.8445233 35.0914637,3.18394226 34.5955505,2.69473889 C34.0996374,2.20553552 33.4384298,1.9609375 32.611908,1.9609375 C31.3886556,1.9609375 30.5423099,2.42683848 30.0728455,3.35865443 C29.8215828,3.85784154 29.6827292,4.55003729 29.6562805,5.43526244 L27.8412476,5.43526244 C27.8610841,4.19062257 28.0892007,3.175624 28.5256042,2.39023627 C29.2992287,1.00582401 30.6646224,0.313628262 32.6218262,0.313628262 C34.2484212,0.313628262 35.4369418,0.756234196 36.1874237,1.64145934 C36.9379056,2.52668449 37.3131409,3.51173229 37.3131409,4.59663228 C37.3131409,5.74143473 36.9131103,6.7198268 36.1130371,7.53183783 C35.6501849,8.00440163 34.8203693,8.57679427 33.6235657,9.24903292 L32.2647705,10.0077935 C31.6167774,10.3672083 31.1076475,10.7099783 30.7373657,11.0361139 C30.0761482,11.6151709 29.6595874,12.2574487 29.4876709,12.9629665 L37.2437134,12.9629665 L37.2437134,14.6601942 L27.4941101,14.6601942 Z" id="52" fill="#15112C"></path>
            </g>
            <path d="M168.102417,194.467458 C169.063726,194.467458 169.811399,194.333063 170.345459,194.06427 C171.184697,193.641881 171.604309,192.881592 171.604309,191.78338 C171.604309,190.677489 171.157994,189.932559 170.26535,189.548569 C169.761808,189.333535 169.014135,189.226019 168.022308,189.226019 L163.959656,189.226019 L163.959656,194.467458 L168.102417,194.467458 Z M168.869171,202.277777 C170.265357,202.277777 171.260983,201.870753 171.856079,201.056694 C172.229921,200.542148 172.41684,199.920093 172.41684,199.190512 C172.41684,197.961744 171.871343,197.124658 170.780334,196.679229 C170.200498,196.441156 169.433751,196.32212 168.480072,196.32212 L163.959656,196.32212 L163.959656,202.277777 L168.869171,202.277777 Z M161.728058,187.313758 L168.94928,187.313758 C170.917673,187.313758 172.317653,187.905094 173.149261,189.087783 C173.637545,189.786645 173.881683,190.593012 173.881683,191.506909 C173.881683,192.574401 173.580325,193.449885 172.9776,194.133388 C172.664793,194.494339 172.214664,194.824565 171.627197,195.124077 C172.489323,195.454309 173.134001,195.826774 173.561249,196.241483 C174.316563,196.978744 174.694214,197.996302 174.694214,199.294189 C174.694214,200.384721 174.354709,201.37156 173.67569,202.254738 C172.660975,203.575663 171.047374,204.236117 168.834839,204.236117 L161.728058,204.236117 L161.728058,187.313758 Z" id="B" fill="#15112C"></path>
            <g id="Group-14" transform="translate(381.846527, 160.000000)">
                <path d="M100,81 C100,84.8659932 77.6142375,88 50,88 C22.3857625,88 0,84.8659932 0,81 L0,6 L100,6 L100,81 Z" id="Combined-Shape" fill="#E1E4E7"></path>
                <ellipse id="Oval" fill="#D8D8D8" cx="50" cy="7" rx="50" ry="7"></ellipse>
            </g>
            <g id="Group-14" transform="translate(496.000000, 160.000000)">
                <path d="M100,81 C100,84.8659932 77.6142375,88 50,88 C22.3857625,88 0,84.8659932 0,81 L0,6 L100,6 L100,81 Z" id="Combined-Shape" fill="#E1E4E7"></path>
                <ellipse id="Oval" fill="#D8D8D8" cx="50" cy="7" rx="50" ry="7"></ellipse>
            </g>
            <g id="Group-4" transform="translate(406.000000, 217.982524)">
                <g id="Fill-2" transform="translate(0.000000, 2.831068)" fill="#221B62">
                    <path d="M11.2744001,2.35548048 C11.5764092,2.00268209 11.8497682,1.60063 12.109375,1.1273839 L10.6967399,0.394473706 C10.4691497,0.782794465 10.2203583,1.10805554 9.95699116,1.36160023 C9.56129577,1.74257025 9.14422014,1.96454778 8.71740344,2.0213388 C7.89503459,2.13081638 7.31837722,1.86581647 6.47878243,1.30447339 C5.59692856,0.714921355 4.59725064,0.0467499486 3.17870646,0.235630479 C2.31765981,0.350294618 1.52913404,0.819585497 0.834974945,1.63051805 C0.53310903,1.98320449 0.259714274,2.38525659 0,2.85861463 L1.41259926,3.5914875 C1.64011784,3.20298018 1.88869434,2.87749522 2.15181083,2.62368934 C2.54116737,2.24809246 2.95827881,2.02839104 3.39154181,1.97066718 C3.5159554,1.95413734 3.63471058,1.9459657 3.74941891,1.9459657 C4.39909853,1.9459657 4.92121304,2.20723426 5.63062838,2.68152514 C6.45468043,3.23245778 7.4800003,3.91805455 8.93120573,3.72492029 C9.80815325,3.6081666 10.5965,3.1474205 11.2744001,2.35548048 Z M11.2744001,6.75714162 C11.5763734,6.40441903 11.8497324,6.00236826 12.109375,5.52908641 L10.6967399,4.79617864 C10.4691497,5.18449812 10.2203583,5.50972081 9.95699116,5.76326466 C9.56129577,6.14423341 9.14422014,6.36621021 8.71740344,6.42307568 C7.89503459,6.53240363 7.31837722,6.26751654 6.47878243,5.706138 C5.59696437,5.11658792 4.59746552,4.44853066 3.17870646,4.63729862 C2.31765981,4.75196238 1.52913404,5.22128903 0.834974945,6.0322189 C0.53310903,6.38486686 0.259750087,6.78691763 0,7.26027411 L1.41259926,7.99318188 C1.64011784,7.60467583 1.88869434,7.27919195 2.15181083,7.02538691 C2.54116737,6.64975395 2.95831462,6.43005326 3.39154181,6.37232959 C3.5159554,6.3557998 3.63467476,6.34762819 3.74941891,6.34762819 C4.39906272,6.34762819 4.92117723,6.60889589 5.63062838,7.08322252 C6.45471624,7.63415334 7.48039424,8.31985979 8.93120573,8.12657691 C9.80815325,8.00978629 10.5965,7.54907902 11.2744001,6.75714162 Z M11.2744001,10.9895646 C11.5764092,10.6367672 11.8497682,10.2347163 12.109375,9.76150885 L10.6967399,9.02860078 C10.4691497,9.41692041 10.2203583,9.74218055 9.95699116,9.99568719 C9.56129577,10.3766561 9.14422014,10.598633 8.71740344,10.6554612 C7.89503459,10.7650131 7.31837722,10.4999393 6.47878243,9.93856051 C5.59696437,9.3490475 4.59746552,8.68087803 3.17870646,8.8697207 C2.31765981,8.9843845 1.52913404,9.45371134 0.834974945,10.2646415 C0.533073217,10.617327 0.259714274,11.0193779 0,11.4926973 L1.41259926,12.2256053 C1.64011784,11.8370618 1.88869434,11.5115778 2.15181083,11.25781 C2.54116737,10.8821769 2.95827881,10.6624761 3.39154181,10.6047524 C3.5159554,10.5882226 3.63467476,10.580051 3.74941891,10.580051 C4.39906272,10.580051 4.92117723,10.8413188 5.63062838,11.3156083 C6.45471624,11.8665766 7.48039424,12.5522087 8.93120573,12.3590004 C9.80815325,12.2422097 10.5965,11.781465 11.2744001,10.9895646 Z" id="Fill-1"></path>
                </g>
                <path d="M17.5064697,4.81828353 L17.5064697,3.44053398 C18.7958438,3.31407325 19.6950862,3.10275387 20.2042236,2.80656952 C20.7133611,2.51038516 21.0935555,1.80986975 21.3448181,0.705002275 L22.7532043,0.705002275 L22.7532043,14.9417476 L20.8489075,14.9417476 L20.8489075,4.81828353 L17.5064697,4.81828353 Z M32.3540344,0.645100121 C34.1922191,0.645100121 35.5212463,1.40718102 36.341156,2.93136567 C36.9759248,4.10944726 37.2933044,5.72346138 37.2933044,7.77345646 C37.2933044,9.71695829 37.0056791,11.3243167 36.4304199,12.5955799 C35.5972859,14.4192768 34.2351983,15.3311116 32.3441162,15.3311116 C30.6381751,15.3311116 29.3686565,14.58567 28.5355225,13.0947645 C27.8412441,11.8501246 27.4941101,10.1795368 27.4941101,8.08295093 C27.4941101,6.45892885 27.7023905,5.06455376 28.1189575,3.89978383 C28.8991942,1.72998384 30.3108724,0.645100121 32.3540344,0.645100121 Z M32.334198,13.693786 C33.2599025,13.693786 33.9971489,13.2811309 34.5459595,12.4558082 C35.09477,11.6304855 35.3691711,10.0930122 35.3691711,7.84334231 C35.3691711,6.21932023 35.1708089,4.88318277 34.7740784,3.83488983 C34.3773479,2.78659689 33.607041,2.26245828 32.4631348,2.26245828 C31.4117989,2.26245828 30.6431451,2.75997398 30.1571503,3.75502029 C29.6711554,4.7500666 29.4281616,6.21599077 29.4281616,8.15283677 C29.4281616,9.61046314 29.5835454,10.7818713 29.8943176,11.6670965 C30.3703942,13.0182296 31.1836796,13.693786 32.334198,13.693786 Z M43.6508789,0.645100121 C45.4890636,0.645100121 46.8180908,1.40718102 47.6380005,2.93136567 C48.2727693,4.10944726 48.5901489,5.72346138 48.5901489,7.77345646 C48.5901489,9.71695829 48.3025236,11.3243167 47.7272644,12.5955799 C46.8941304,14.4192768 45.5320427,15.3311116 43.6409607,15.3311116 C41.9350195,15.3311116 40.665501,14.58567 39.8323669,13.0947645 C39.1380886,11.8501246 38.7909546,10.1795368 38.7909546,8.08295093 C38.7909546,6.45892885 38.999235,5.06455376 39.415802,3.89978383 C40.1960387,1.72998384 41.6077168,0.645100121 43.6508789,0.645100121 Z M43.6310425,13.693786 C44.556747,13.693786 45.2939934,13.2811309 45.842804,12.4558082 C46.3916145,11.6304855 46.6660156,10.0930122 46.6660156,7.84334231 C46.6660156,6.21932023 46.4676534,4.88318277 46.0709229,3.83488983 C45.6741924,2.78659689 44.9038855,2.26245828 43.7599792,2.26245828 C42.7086434,2.26245828 41.9399896,2.75997398 41.4539948,3.75502029 C40.9679999,4.7500666 40.7250061,6.21599077 40.7250061,8.15283677 C40.7250061,9.61046314 40.8803899,10.7818713 41.1911621,11.6670965 C41.6672387,13.0182296 42.480524,13.693786 43.6310425,13.693786 Z" id="100" fill="#15112C"></path>
            </g>
            <path d="M433.414124,197.30129 L430.862091,189.825041 L428.149841,197.30129 L433.414124,197.30129 Z M429.671906,187.313758 L432.246826,187.313758 L438.346527,204.236117 L435.851715,204.236117 L434.146545,199.167473 L427.497528,199.167473 L425.677917,204.236117 L423.343323,204.236117 L429.671906,187.313758 Z" id="A" fill="#15112C"></path>
            <g id="Group-4" transform="translate(526.500000, 217.477670)">
                <g id="Fill-2" transform="translate(0.000000, 3.335922)" fill="#221B62">
                    <path d="M11.2744001,2.35548048 C11.5764092,2.00268209 11.8497682,1.60063 12.109375,1.1273839 L10.6967399,0.394473706 C10.4691497,0.782794465 10.2203583,1.10805554 9.95699116,1.36160023 C9.56129577,1.74257025 9.14422014,1.96454778 8.71740344,2.0213388 C7.89503459,2.13081638 7.31837722,1.86581647 6.47878243,1.30447339 C5.59692856,0.714921355 4.59725064,0.0467499486 3.17870646,0.235630479 C2.31765981,0.350294618 1.52913404,0.819585497 0.834974945,1.63051805 C0.53310903,1.98320449 0.259714274,2.38525659 0,2.85861463 L1.41259926,3.5914875 C1.64011784,3.20298018 1.88869434,2.87749522 2.15181083,2.62368934 C2.54116737,2.24809246 2.95827881,2.02839104 3.39154181,1.97066718 C3.5159554,1.95413734 3.63471058,1.9459657 3.74941891,1.9459657 C4.39909853,1.9459657 4.92121304,2.20723426 5.63062838,2.68152514 C6.45468043,3.23245778 7.4800003,3.91805455 8.93120573,3.72492029 C9.80815325,3.6081666 10.5965,3.1474205 11.2744001,2.35548048 Z M11.2744001,6.75714162 C11.5763734,6.40441903 11.8497324,6.00236826 12.109375,5.52908641 L10.6967399,4.79617864 C10.4691497,5.18449812 10.2203583,5.50972081 9.95699116,5.76326466 C9.56129577,6.14423341 9.14422014,6.36621021 8.71740344,6.42307568 C7.89503459,6.53240363 7.31837722,6.26751654 6.47878243,5.706138 C5.59696437,5.11658792 4.59746552,4.44853066 3.17870646,4.63729862 C2.31765981,4.75196238 1.52913404,5.22128903 0.834974945,6.0322189 C0.53310903,6.38486686 0.259750087,6.78691763 0,7.26027411 L1.41259926,7.99318188 C1.64011784,7.60467583 1.88869434,7.27919195 2.15181083,7.02538691 C2.54116737,6.64975395 2.95831462,6.43005326 3.39154181,6.37232959 C3.5159554,6.3557998 3.63467476,6.34762819 3.74941891,6.34762819 C4.39906272,6.34762819 4.92117723,6.60889589 5.63062838,7.08322252 C6.45471624,7.63415334 7.48039424,8.31985979 8.93120573,8.12657691 C9.80815325,8.00978629 10.5965,7.54907902 11.2744001,6.75714162 Z M11.2744001,10.9895646 C11.5764092,10.6367672 11.8497682,10.2347163 12.109375,9.76150885 L10.6967399,9.02860078 C10.4691497,9.41692041 10.2203583,9.74218055 9.95699116,9.99568719 C9.56129577,10.3766561 9.14422014,10.598633 8.71740344,10.6554612 C7.89503459,10.7650131 7.31837722,10.4999393 6.47878243,9.93856051 C5.59696437,9.3490475 4.59746552,8.68087803 3.17870646,8.8697207 C2.31765981,8.9843845 1.52913404,9.45371134 0.834974945,10.2646415 C0.533073217,10.617327 0.259714274,11.0193779 0,11.4926973 L1.41259926,12.2256053 C1.64011784,11.8370618 1.88869434,11.5115778 2.15181083,11.25781 C2.54116737,10.8821769 2.95827881,10.6624761 3.39154181,10.6047524 C3.5159554,10.5882226 3.63467476,10.580051 3.74941891,10.580051 C4.39906272,10.580051 4.92117723,10.8413188 5.63062838,11.3156083 C6.45471624,11.8665766 7.48039424,12.5522087 8.93120573,12.3590004 C9.80815325,12.2422097 10.5965,11.781465 11.2744001,10.9895646 Z" id="Fill-1"></path>
                </g>
                <path d="M21.5035095,0.303644569 C23.0904315,0.303644569 24.1963012,0.717963659 24.8211517,1.54661427 C25.4460023,2.37526488 25.7584229,3.22886204 25.7584229,4.10743136 L23.992981,4.10743136 C23.8871862,3.54168596 23.7185782,3.09908003 23.4871521,2.77960027 C23.0573607,2.18057574 22.4060713,1.88106796 21.5332642,1.88106796 C20.5348257,1.88106796 19.7413766,2.34530501 19.1528931,3.27379304 C18.5644095,4.20228108 18.2371117,5.53176281 18.17099,7.26227814 C18.5809448,6.65659778 19.0966868,6.20400825 19.7182312,5.90449598 C20.2868783,5.63826285 20.9216375,5.50514829 21.6225281,5.50514829 C22.8127196,5.50514829 23.8508155,5.88785267 24.7368469,6.65327291 C25.6228784,7.41869315 26.0658875,8.56015056 26.0658875,10.0776794 C26.0658875,11.3755659 25.6460206,12.525343 24.8062744,13.5270451 C23.9665282,14.5287472 22.7697425,15.0295908 21.2158813,15.0295908 C19.8868342,15.0295908 18.739639,14.5220915 17.7742615,13.5070777 C16.8088839,12.4920639 16.3262024,10.7832057 16.3262024,8.38045168 C16.3262024,6.60334556 16.5410949,5.09582309 16.9708862,3.85783905 C17.7974081,1.48836421 19.3082674,0.303644569 21.5035095,0.303644569 Z M21.3745728,13.4322 C22.3135016,13.4322 23.0160347,13.114389 23.482193,12.4787574 C23.9483513,11.8431258 24.181427,11.0926924 24.181427,10.2274348 C24.181427,9.49529367 23.9731466,8.79810613 23.5565796,8.13585122 C23.1400126,7.47359632 22.3829299,7.14247383 21.2853088,7.14247383 C20.5182965,7.14247383 19.8455178,7.39871937 19.2669525,7.91121814 C18.6883872,8.42371691 18.3991089,9.1957814 18.3991089,10.2274348 C18.3991089,11.1326274 18.6619389,11.8930444 19.1876068,12.5087085 C19.7132747,13.1243726 20.4422561,13.4322 21.3745728,13.4322 Z M27.4941101,14.6601942 C27.5602319,13.428866 27.8131438,12.3572937 28.2528534,11.4454452 C28.692563,10.5335968 29.5504799,9.7049586 30.8266296,8.95950584 L32.7309265,7.85131599 C33.5838971,7.35212888 34.1822899,6.92616226 34.526123,6.57340337 C35.0683214,6.02096963 35.3394165,5.38867544 35.3394165,4.67650182 C35.3394165,3.8445233 35.0914637,3.18394226 34.5955505,2.69473889 C34.0996374,2.20553552 33.4384298,1.9609375 32.611908,1.9609375 C31.3886556,1.9609375 30.5423099,2.42683848 30.0728455,3.35865443 C29.8215828,3.85784154 29.6827292,4.55003729 29.6562805,5.43526244 L27.8412476,5.43526244 C27.8610841,4.19062257 28.0892007,3.175624 28.5256042,2.39023627 C29.2992287,1.00582401 30.6646224,0.313628262 32.6218262,0.313628262 C34.2484212,0.313628262 35.4369418,0.756234196 36.1874237,1.64145934 C36.9379056,2.52668449 37.3131409,3.51173229 37.3131409,4.59663228 C37.3131409,5.74143473 36.9131103,6.7198268 36.1130371,7.53183783 C35.6501849,8.00440163 34.8203693,8.57679427 33.6235657,9.24903292 L32.2647705,10.0077935 C31.6167774,10.3672083 31.1076475,10.7099783 30.7373657,11.0361139 C30.0761482,11.6151709 29.6595874,12.2574487 29.4876709,12.9629665 L37.2437134,12.9629665 L37.2437134,14.6601942 L27.4941101,14.6601942 Z" id="62" fill="#15112C"></path>
            </g>
            <path d="M548.102417,194.467458 C549.063726,194.467458 549.811399,194.333063 550.345459,194.06427 C551.184697,193.641881 551.604309,192.881592 551.604309,191.78338 C551.604309,190.677489 551.157994,189.932559 550.26535,189.548569 C549.761808,189.333535 549.014135,189.226019 548.022308,189.226019 L543.959656,189.226019 L543.959656,194.467458 L548.102417,194.467458 Z M548.869171,202.277777 C550.265357,202.277777 551.260983,201.870753 551.856079,201.056694 C552.229921,200.542148 552.41684,199.920093 552.41684,199.190512 C552.41684,197.961744 551.871343,197.124658 550.780334,196.679229 C550.200498,196.441156 549.433751,196.32212 548.480072,196.32212 L543.959656,196.32212 L543.959656,202.277777 L548.869171,202.277777 Z M541.728058,187.313758 L548.94928,187.313758 C550.917673,187.313758 552.317653,187.905094 553.149261,189.087783 C553.637545,189.786645 553.881683,190.593012 553.881683,191.506909 C553.881683,192.574401 553.580325,193.449885 552.9776,194.133388 C552.664793,194.494339 552.214664,194.824565 551.627197,195.124077 C552.489323,195.454309 553.134001,195.826774 553.561249,196.241483 C554.316563,196.978744 554.694214,197.996302 554.694214,199.294189 C554.694214,200.384721 554.354709,201.37156 553.67569,202.254738 C552.660975,203.575663 551.047374,204.236117 548.834839,204.236117 L541.728058,204.236117 L541.728058,187.313758 Z" id="B" fill="#15112C"></path>
            <g id="Group-10" transform="translate(259.000000, 0.000000)">
                <rect id="Rectangle" fill="#0F7B63" x="0" y="0.376173697" width="63" height="62.2222222"></rect>
                <g id="Group-2" transform="translate(15.750000, 19.820618)" fill="#FFFFFF">
                    <polygon id="T" points="18.8415527 0.240017361 18.8415527 2.8984375 11.2280273 2.8984375 11.2280273 22.5555556 8.12109375 22.5555556 8.12109375 2.8984375 0.507568359 2.8984375 0.507568359 0.240017361"></polygon>
                    <polygon id="N" points="18.0371338 12.4972331 20.2961975 12.4972331 27.429071 23.7955187 27.429071 12.4972331 29.2459351 12.4972331 29.2459351 26.4444444 27.1022278 26.4444444 19.8636108 15.1556532 19.8636108 26.4444444 18.0371338 26.4444444"></polygon>
                </g>
            </g>
            <g id="Group-6" transform="translate(73.000000, 17.000000)">
                <rect id="Rectangle" fill="#5645F5" x="0" y="0.377354776" width="70" height="70.2197802"></rect>
                <g id="Group" transform="translate(10.888889, 21.846154)" fill="#FFFFFF">
                    <path d="M3.56684028,16.183465 C3.63773184,17.4533603 3.93648464,18.4844998 4.46310764,19.2769145 C5.46571682,20.7601522 7.23291558,21.50176 9.76475694,21.50176 C10.8990219,21.50176 11.9319977,21.3392158 12.8637153,21.0141226 C14.6663863,20.3842545 15.5677083,19.2566044 15.5677083,17.6311384 C15.5677083,16.4120389 15.1879378,15.5434435 14.4283854,15.0253262 C13.6587056,14.5173681 12.4535672,14.0754512 10.812934,13.6995622 L7.78993056,13.0138221 C5.81509429,12.566819 4.41753882,12.074107 3.59722222,11.5356714 C2.17939106,10.6010284 1.47048611,9.20416452 1.47048611,7.34503777 C1.47048611,5.3335236 2.16420024,3.68268445 3.55164931,2.39247081 C4.93909837,1.10225717 6.9037778,0.457160027 9.44574653,0.457160027 C11.7851679,0.457160027 13.7726336,1.02352484 15.4082031,2.15627146 C17.0437726,3.28901808 17.8615451,5.09986164 17.8615451,7.58885646 L15.0208333,7.58885646 C14.8689229,6.39007528 14.544852,5.47068486 14.0486111,4.83065762 C13.1270209,3.66235393 11.5623664,3.07821085 9.35460069,3.07821085 C7.57218438,3.07821085 6.29109186,3.45409423 5.51128472,4.20587225 C4.73147758,4.95765028 4.34157986,5.83132515 4.34157986,6.82692308 C4.34157986,7.92411263 4.79730447,8.72667443 5.70876736,9.23463255 C6.30628192,9.55972576 7.65826493,9.96608616 9.76475694,10.453726 L12.8940972,11.1699433 C14.4030747,11.5153549 15.5677042,11.9877488 16.3880208,12.5871394 C17.805852,13.6335332 18.5147569,15.1523052 18.5147569,17.143501 C18.5147569,19.6223367 17.6159667,21.395084 15.8183594,22.461796 C14.020752,23.5285081 11.9320142,24.0618561 9.55208333,24.0618561 C6.7771852,24.0618561 4.60489789,23.3507254 3.03515625,21.9284427 C1.46541461,20.5163191 0.695746376,18.6013457 0.726128472,16.183465 L3.56684028,16.183465 Z" id="S"></path>
                    <path d="M21.703342,13.3166906 L23.9345161,13.3166906 L30.9793294,24.6504496 L30.9793294,13.3166906 L32.773763,13.3166906 L32.773763,27.3076923 L30.6565213,27.3076923 L23.50727,15.9834575 L23.50727,27.3076923 L21.703342,27.3076923 L21.703342,13.3166906 Z M35.0713976,20.9931694 L39.8375651,20.9931694 L39.8375651,22.7551404 L35.0713976,22.7551404 L35.0713976,20.9931694 Z M42.6004232,17.6501867 L42.6004232,16.3358516 C43.8346958,16.2152116 44.695509,16.0136187 45.1828885,15.731067 C45.6702679,15.4485153 46.0342147,14.7802429 46.2747396,13.7262298 L47.6229384,13.7262298 L47.6229384,27.3076923 L45.8000217,27.3076923 L45.8000217,17.6501867 L42.6004232,17.6501867 Z" id="N-1"></path>
                </g>
            </g>
            <g id="Group-12" transform="translate(448.000000, 17.000000)">
                <rect id="Rectangle" fill="#221B62" x="0" y="0.377354776" width="70" height="70.2197802"></rect>
                <g id="Group" transform="translate(18.666667, 21.846154)" fill="#FFFFFF">
                    <path d="M3.56684028,16.183465 C3.63773184,17.4533603 3.93648464,18.4844998 4.46310764,19.2769145 C5.46571682,20.7601522 7.23291558,21.50176 9.76475694,21.50176 C10.8990219,21.50176 11.9319977,21.3392158 12.8637153,21.0141226 C14.6663863,20.3842545 15.5677083,19.2566044 15.5677083,17.6311384 C15.5677083,16.4120389 15.1879378,15.5434435 14.4283854,15.0253262 C13.6587056,14.5173681 12.4535672,14.0754512 10.812934,13.6995622 L7.78993056,13.0138221 C5.81509429,12.566819 4.41753882,12.074107 3.59722222,11.5356714 C2.17939106,10.6010284 1.47048611,9.20416452 1.47048611,7.34503777 C1.47048611,5.3335236 2.16420024,3.68268445 3.55164931,2.39247081 C4.93909837,1.10225717 6.9037778,0.457160027 9.44574653,0.457160027 C11.7851679,0.457160027 13.7726336,1.02352484 15.4082031,2.15627146 C17.0437726,3.28901808 17.8615451,5.09986164 17.8615451,7.58885646 L15.0208333,7.58885646 C14.8689229,6.39007528 14.544852,5.47068486 14.0486111,4.83065762 C13.1270209,3.66235393 11.5623664,3.07821085 9.35460069,3.07821085 C7.57218438,3.07821085 6.29109186,3.45409423 5.51128472,4.20587225 C4.73147758,4.95765028 4.34157986,5.83132515 4.34157986,6.82692308 C4.34157986,7.92411263 4.79730447,8.72667443 5.70876736,9.23463255 C6.30628192,9.55972576 7.65826493,9.96608616 9.76475694,10.453726 L12.8940972,11.1699433 C14.4030747,11.5153549 15.5677042,11.9877488 16.3880208,12.5871394 C17.805852,13.6335332 18.5147569,15.1523052 18.5147569,17.143501 C18.5147569,19.6223367 17.6159667,21.395084 15.8183594,22.461796 C14.020752,23.5285081 11.9320142,24.0618561 9.55208333,24.0618561 C6.7771852,24.0618561 4.60489789,23.3507254 3.03515625,21.9284427 C1.46541461,20.5163191 0.695746376,18.6013457 0.726128472,16.183465 L3.56684028,16.183465 Z" id="S"></path>
                    <polygon id="N" points="21.703342 13.3166906 23.9345161 13.3166906 30.9793294 24.6504496 30.9793294 13.3166906 32.773763 13.3166906 32.773763 27.3076923 30.6565213 27.3076923 23.50727 15.9834575 23.50727 27.3076923 21.703342 27.3076923"></polygon>
                </g>
            </g>
        </g>
        <g id="Group-11" transform="translate(498.000000, 142.000000)">
            <g id="Group-10" transform="translate(213.000000, 6.000000)">
                <rect id="Rectangle" fill="#0F7B63" x="0" y="0.238840442" width="40" height="39.5061728"></rect>
                <g id="Group-2" transform="translate(10.000000, 12.584519)" fill="#FFFFFF">
                    <polygon id="T" points="11.9628906 0.152391975 11.9628906 1.84027778 7.12890625 1.84027778 7.12890625 14.3209877 5.15625 14.3209877 5.15625 1.84027778 0.322265625 1.84027778 0.322265625 0.152391975"></polygon>
                    <polygon id="N" points="11.4521484 7.93475116 12.8864746 7.93475116 17.4152832 15.1082658 17.4152832 7.93475116 18.5688477 7.93475116 18.5688477 16.7901235 17.2077637 16.7901235 12.6118164 9.62263696 12.6118164 16.7901235 11.4521484 16.7901235"></polygon>
                </g>
            </g>
            <g id="Group-6" transform="translate(129.000000, 7.000000)">
                <rect id="Rectangle" fill="#5645F5" x="0" y="0.238840442" width="75" height="39.5061728"></rect>
                <g id="Group" transform="translate(21.521557, 11.646248)" fill="#FFFFFF">
                    <path d="M1.95834682,10.6875 C2.00332032,11.4912592 2.19284865,12.1439018 2.52693749,12.6454475 C3.16299124,13.5842382 4.28409948,14.0536265 5.89029583,14.0536265 C6.6098718,14.0536265 7.26519008,13.9507469 7.85627034,13.7449846 C8.99988214,13.34632 9.57167947,12.6325926 9.57167947,11.6037809 C9.57167947,10.8321721 9.33075363,10.282409 8.84889472,9.95447531 C8.36061103,9.63297164 7.59607304,9.35326765 6.5552578,9.11535494 L4.63746894,8.68132716 C3.38463579,8.39840394 2.4980287,8.08655006 1.97762108,7.74575617 C1.07815112,7.15418943 0.62842289,6.27006761 0.62842289,5.0933642 C0.62842289,3.82020968 1.06851409,2.77533845 1.94870969,1.95871914 C2.82890529,1.14209983 4.07529497,0.733796296 5.68791611,0.733796296 C7.17204154,0.733796296 8.43288676,1.09226751 9.4704896,1.80922068 C10.5080924,2.52617385 11.0268861,3.67231723 11.0268861,5.24768519 L9.22474279,5.24768519 C9.12837101,4.48893654 8.92278096,3.90702363 8.60796648,3.50192901 C8.023311,2.76247058 7.03069655,2.39274691 5.63009333,2.39274691 C4.49933109,2.39274691 3.68660793,2.63065606 3.19189945,3.10648148 C2.69719098,3.58230691 2.44984045,4.13528492 2.44984045,4.7654321 C2.44984045,5.45988002 2.73895145,5.96784819 3.31718214,6.28935185 C3.69624448,6.4951142 4.55394047,6.75231327 5.89029583,7.06095679 L7.8755446,7.51427469 C8.83283763,7.73289718 9.57167687,8.03189111 10.0920845,8.41126543 C10.9915544,9.07356298 11.4412827,10.0348445 11.4412827,11.2951389 C11.4412827,12.8640768 10.8710915,13.9861077 9.73069211,14.6612654 C8.5902927,15.3364231 7.26520059,15.6739969 5.75537601,15.6739969 C3.99498481,15.6739969 2.61688901,15.2238985 1.62104727,14.3236883 C0.625205534,13.4299081 0.136929167,12.2178574 0.156203523,10.6875 L1.95834682,10.6875 Z" id="S"></path>
                    <path d="M13.4641162,8.87302276 L14.8795697,8.87302276 L19.3487887,16.0465374 L19.3487887,8.87302276 L20.4871747,8.87302276 L20.4871747,17.7283951 L19.1439997,17.7283951 L14.6085254,10.5609086 L14.6085254,17.7283951 L13.4641162,17.7283951 L13.4641162,8.87302276 Z M21.9447906,13.7317226 L24.9684401,13.7317226 L24.9684401,14.8469329 L21.9447906,14.8469329 L21.9447906,13.7317226 Z M26.7211931,11.6158372 L26.7211931,10.7839506 C27.5042138,10.7075935 28.0503124,10.5799986 28.3595052,10.4011622 C28.668698,10.2223258 28.8995853,9.7993539 29.0521739,9.1322338 L29.9074692,9.1322338 L29.9074692,17.7283951 L28.7510136,17.7283951 L28.7510136,11.6158372 L26.7211931,11.6158372 Z" id="N-1"></path>
                </g>
            </g>
            <rect id="Rectangle" fill="#F5F6FA" x="0" y="0" width="253" height="107"></rect>
            <path d="M66.7634506,74.7404777 L66.7634506,76.1504196 L58,76.1504196 L58,74.7404777 L66.7634506,74.7404777 Z M66.7634506,78.3408651 L66.7634506,79.7759845 L58,79.7759845 L58,78.3408651 L66.7634506,78.3408651 Z M74.4598272,77.6610717 C74.4990374,78.3604511 74.6642782,78.9283387 74.9555545,79.3647515 C75.5100997,80.1816266 76.4875409,80.5900581 77.8879076,80.5900581 C78.5152718,80.5900581 79.0866128,80.5005389 79.6019478,80.3214977 C80.5990088,79.9746055 81.0975319,79.3535659 81.0975319,78.4583602 C81.0975319,77.786956 80.88748,77.3085876 80.46737,77.0232408 C80.0416586,76.743489 79.375094,76.5001086 78.4676565,76.2930923 L76.7956271,75.9154293 C75.7033411,75.6692477 74.9303503,75.3978926 74.4766315,75.1013557 C73.6924262,74.5866124 73.3003294,73.8173066 73.3003294,72.7934151 C73.3003294,71.6855981 73.6840241,70.7764184 74.451425,70.0658489 C75.2188259,69.3552794 76.3054942,69 77.7114623,69 C79.005401,69 80.1046724,69.3119186 81.0093092,69.935765 C81.9139461,70.5596115 82.3662577,71.5569116 82.3662577,72.9276953 L80.7950542,72.9276953 C80.7110322,72.2674811 80.5317879,71.761138 80.2573161,71.4086507 C79.7475826,70.7652217 78.882169,70.4435119 77.6610493,70.4435119 C76.6751912,70.4435119 75.9666163,70.6505252 75.5353034,71.0645578 C75.1039905,71.4785904 74.8883372,71.9597562 74.8883372,72.5080697 C74.8883372,73.1123336 75.1403994,73.5543347 75.6445314,73.8340865 C75.975018,74.0131276 76.7228025,74.2369257 77.8879076,74.5054874 L79.6187521,74.8999354 C80.4533706,75.0901666 81.0975296,75.3503319 81.5512484,75.680439 C82.3354537,76.2567277 82.7275505,77.0931729 82.7275505,78.1897999 C82.7275505,79.5549885 82.2304278,80.5313076 81.2361675,81.1187863 C80.2419072,81.706265 79.086622,82 77.7702774,82 C76.2354755,82 75.033979,81.6083534 74.1657517,80.8250484 C73.2975243,80.0473385 72.8718193,78.9926901 72.8886237,77.6610717 L74.4598272,77.6610717 Z M88.3906049,72.4493221 C89.029172,72.4493221 89.6481248,72.5989871 90.2474817,72.8983215 C90.8468387,73.1976559 91.3033513,73.5851063 91.6170335,74.0606843 C91.9195127,74.5138822 92.1211624,75.0426051 92.2219888,75.6468689 C92.3116123,76.0609016 92.3564234,76.7211059 92.3564234,77.6275016 L85.7607295,77.6275016 C85.7887368,78.5394924 86.00439,79.2710323 86.4076956,79.8221433 C86.8110012,80.3732543 87.4355554,80.6488057 88.2813768,80.6488057 C89.0711836,80.6488057 89.7013391,80.3886404 90.1718623,79.8683021 C90.4407327,79.5661702 90.6311797,79.2164857 90.7432091,78.8192382 L92.230391,78.8192382 C92.1911807,79.1493453 92.0609486,79.5172134 91.8396906,79.9228535 C91.6184327,80.3284935 91.3705715,80.6599944 91.0960997,80.917366 C90.6367794,81.3649689 90.0682391,81.6670963 89.3904616,81.8237573 C89.0263663,81.9132778 88.6146647,81.9580374 88.1553444,81.9580374 C87.0350511,81.9580374 86.0856168,81.5510047 85.3070129,80.736927 C84.5284091,79.9228494 84.139113,78.782878 84.139113,77.3169787 C84.139113,75.8734595 84.5312098,74.7013172 85.3154151,73.8005165 C86.0996204,72.8997157 87.1246734,72.4493221 88.3906049,72.4493221 Z M90.8020242,76.4273725 C90.740408,75.7727533 90.5975728,75.2496254 90.3735141,74.8579729 C89.9590056,74.1306183 89.2672348,73.7669464 88.2981811,73.7669464 C87.6035993,73.7669464 87.0210555,74.0173205 86.5505323,74.5180762 C86.0800091,75.0188319 85.8307476,75.6552576 85.8027402,76.4273725 L90.8020242,76.4273725 Z M94.2133002,72.6507424 L95.6500692,72.6507424 L95.6500692,73.9264041 C96.0757807,73.4004708 96.526692,73.0228116 97.0028166,72.7934151 C97.4789413,72.5640187 98.0082719,72.4493221 98.5908245,72.4493221 C99.8679588,72.4493221 100.730572,72.8941208 101.178689,73.7837314 C101.425154,74.2704995 101.548384,74.967071 101.548384,75.8734668 L101.548384,81.639122 L100.010789,81.639122 L100.010789,75.9741769 C100.010789,75.4258634 99.9295691,74.9838622 99.7671266,74.6481601 C99.4982562,74.0886566 99.0109359,73.808909 98.3051511,73.808909 C97.9466572,73.808909 97.6525847,73.8452762 97.4229245,73.9180116 C97.008416,74.0411024 96.6443261,74.2872803 96.330644,74.6565526 C96.078578,74.9530895 95.9147376,75.2594131 95.8391178,75.5755326 C95.763498,75.8916521 95.7256886,76.3434444 95.7256886,76.9309232 L95.7256886,81.639122 L94.2133002,81.639122 L94.2133002,72.6507424 Z M104.741204,77.2498386 C104.741204,78.2121847 104.945654,79.0178577 105.354562,79.6668819 C105.763469,80.315906 106.41883,80.6404132 107.320666,80.6404132 C108.02085,80.6404132 108.596392,80.3396845 109.04731,79.7382182 C109.498228,79.1367519 109.723684,78.2737306 109.723684,77.1491285 C109.723684,76.0133363 109.491226,75.1726948 109.026304,74.6271788 C108.561383,74.0816629 107.987241,73.808909 107.303862,73.808909 C106.542063,73.808909 105.92451,74.0998465 105.451186,74.6817301 C104.977862,75.2636138 104.741204,76.1196414 104.741204,77.2498386 Z M107.018189,72.4912847 C107.707169,72.4912847 108.284112,72.6367534 108.749033,72.9276953 C109.017904,73.0955464 109.323179,73.3892813 109.664868,73.808909 L109.664868,69.2685604 L111.118442,69.2685604 L111.118442,81.639122 L109.757292,81.639122 L109.757292,80.3886378 C109.4044,80.9425463 108.987097,81.3425854 108.505371,81.5887669 C108.023645,81.8349485 107.471908,81.9580374 106.850146,81.9580374 C105.847483,81.9580374 104.979269,81.5370173 104.245477,80.6949645 C103.511685,79.8529116 103.144794,78.7325226 103.144794,77.3337637 C103.144794,76.0245254 103.479477,74.890149 104.148852,73.9306004 C104.818227,72.9710518 105.774663,72.4912847 107.018189,72.4912847 Z M128.233637,73.1291156 L128.233637,71.970949 C129.325923,71.8646433 130.087711,71.6870036 130.519024,71.4380245 C130.950337,71.1890455 131.272417,70.6001768 131.485272,69.6714009 L132.678379,69.6714009 L132.678379,81.639122 L131.065164,81.639122 L131.065164,73.1291156 L128.233637,73.1291156 Z M140.811668,69.6210458 C142.368875,69.6210458 143.494753,70.2616678 144.189335,71.5429309 C144.727076,72.5332522 144.995942,73.890028 144.995942,75.6132989 C144.995942,77.2470493 144.752282,78.5982301 144.264954,79.6668819 C143.55917,81.1999216 142.405285,81.96643 140.803265,81.96643 C139.358087,81.96643 138.282622,81.3397954 137.576837,80.0865074 C136.988683,79.0402358 136.69461,77.6359029 136.69461,75.8734668 C136.69461,74.5082781 136.871054,73.3361357 137.223946,72.3570045 C137.884919,70.5330229 139.080814,69.6210458 140.811668,69.6210458 Z M140.794863,80.5900581 C141.579069,80.5900581 142.203623,80.2431711 142.668544,79.5493867 C143.133466,78.8556023 143.365924,77.5631685 143.365924,75.6720465 C143.365924,74.3068578 143.197882,73.1836713 142.861794,72.3024532 C142.525706,71.4212351 141.873145,70.9806327 140.904091,70.9806327 C140.013458,70.9806327 139.362297,71.3988553 138.95059,72.2353131 C138.538882,73.0717709 138.333031,74.304059 138.333031,75.9322143 C138.333031,77.1575271 138.464663,78.1422386 138.727932,78.8863783 C139.131238,80.0221705 139.820208,80.5900581 140.794863,80.5900581 Z M151.99494,71.2827631 C152.017345,70.6561191 152.126572,70.1973331 152.322624,69.9063912 C152.675516,69.391648 153.356084,69.1342802 154.364348,69.1342802 C154.459573,69.1342802 154.557597,69.1370777 154.658424,69.1426727 C154.75925,69.1482677 154.874078,69.1566602 155.002912,69.1678502 L155.002912,70.5442221 C154.846071,70.533032 154.732643,70.5260383 154.662625,70.5232408 C154.592606,70.5204433 154.52679,70.5190445 154.465174,70.5190445 C154.005854,70.5190445 153.731386,70.6379373 153.641763,70.8757263 C153.552139,71.1135153 153.507328,71.7191688 153.507328,72.692705 L155.002912,72.692705 L155.002912,73.8844416 L153.490524,73.8844416 L153.490524,81.639122 L151.99494,81.639122 L151.99494,73.8844416 L150.743018,73.8844416 L150.743018,72.692705 L151.99494,72.692705 L151.99494,71.2827631 Z M156.439681,72.6507424 L157.87645,72.6507424 L157.87645,74.203357 C157.994081,73.9012251 158.282552,73.533357 158.741872,73.0997418 C159.201193,72.6661265 159.730523,72.4493221 160.32988,72.4493221 C160.357888,72.4493221 160.405499,72.4521196 160.472717,72.4577147 C160.539934,72.4633097 160.654763,72.4744996 160.817205,72.4912847 L160.817205,74.0858618 C160.727582,74.0690767 160.644961,74.0578868 160.569342,74.0522918 C160.493722,74.0466968 160.411101,74.0438993 160.321478,74.0438993 C159.559679,74.0438993 158.974334,74.2886784 158.565427,74.778244 C158.15652,75.2678096 157.95207,75.831501 157.95207,76.4693351 L157.95207,81.639122 L156.439681,81.639122 L156.439681,72.6507424 Z M165.698859,80.6655907 C166.701522,80.6655907 167.389091,80.2865327 167.761589,79.5284054 C168.134086,78.7702781 168.320332,77.9268392 168.320332,76.9980633 C168.320332,76.1588079 168.185899,75.4762238 167.917029,74.9502905 C167.491317,74.1222253 166.757536,73.7081988 165.715663,73.7081988 C164.791421,73.7081988 164.119255,74.0606808 163.699145,74.7656553 C163.279035,75.4706297 163.068984,76.3210624 163.068984,77.3169787 C163.068984,78.2737298 163.279035,79.0710104 163.699145,79.7088444 C164.119255,80.3466785 164.78582,80.6655907 165.698859,80.6655907 Z M165.757674,72.3905746 C166.917178,72.3905746 167.89742,72.7766262 168.698429,73.5487411 C169.499439,74.320856 169.899938,75.4566312 169.899938,76.9561007 C169.899938,78.4052149 169.547051,79.6025345 168.841266,80.5480955 C168.135481,81.4936565 167.040411,81.96643 165.556022,81.96643 C164.318098,81.96643 163.335056,81.5482073 162.606865,80.7117495 C161.878674,79.8752917 161.514584,78.7521052 161.514584,77.3421562 C161.514584,75.8314966 161.898279,74.6285821 162.66568,73.7333764 C163.433081,72.8381707 164.463735,72.3905746 165.757674,72.3905746 Z M171.698,72.6507424 L173.193584,72.6507424 L173.193584,73.9264041 C173.552078,73.4843963 173.876958,73.1626866 174.168234,72.9612653 C174.666765,72.6199682 175.232504,72.4493221 175.86547,72.4493221 C176.582458,72.4493221 177.1594,72.6255631 177.596315,72.9780504 C177.842779,73.1794716 178.066834,73.4760041 178.268487,73.8676566 C178.604575,73.3864835 178.999473,73.0298053 179.453191,72.7976114 C179.90691,72.5654174 180.416636,72.4493221 180.982384,72.4493221 C182.192301,72.4493221 183.015704,72.8857284 183.452619,73.7585539 C183.68788,74.2285369 183.805509,74.8607664 183.805509,75.6552615 L183.805509,81.639122 L182.234306,81.639122 L182.234306,75.3950936 C182.234306,74.7964248 182.084469,74.3851959 181.78479,74.1613944 C181.485112,73.937593 181.119622,73.825694 180.688309,73.825694 C180.094553,73.825694 179.583427,74.0243148 179.154915,74.4215623 C178.726403,74.8188098 178.51215,75.4818116 178.51215,76.4105875 L178.51215,81.639122 L176.974555,81.639122 L176.974555,75.7727566 C176.974555,75.1628977 176.901737,74.7180991 176.756099,74.4383473 C176.526439,74.0187197 176.097933,73.808909 175.470569,73.808909 C174.899219,73.808909 174.379691,74.0299096 173.911968,74.4719174 C173.444246,74.9139252 173.210388,75.7140032 173.210388,76.8721756 L173.210388,81.639122 L171.698,81.639122 L171.698,72.6507424 Z M196.408746,76.5868302 L194.535065,71.1400904 L192.543753,76.5868302 L196.408746,76.5868302 Z M193.66124,69.3105229 L195.551726,69.3105229 L200.030076,81.639122 L198.198405,81.639122 L196.946484,77.946417 L192.06483,77.946417 L190.728887,81.639122 L189.014847,81.639122 L193.66124,69.3105229 Z M205.491478,70.1413815 L207.020671,70.1413815 L207.020671,72.6507424 L208.45744,72.6507424 L208.45744,73.8844416 L207.020671,73.8844416 L207.020671,79.750807 C207.020671,80.064129 207.127097,80.2739396 207.339953,80.3802453 C207.457584,80.4417907 207.653632,80.4725629 207.928104,80.4725629 C208.000923,80.4725629 208.079343,80.4711642 208.163365,80.4683667 C208.247387,80.4655692 208.345411,80.4585755 208.45744,80.4473854 L208.45744,81.639122 C208.283795,81.6894773 208.10315,81.7258445 207.915501,81.7482247 C207.727852,81.7706048 207.524802,81.7817947 207.306345,81.7817947 C206.60056,81.7817947 206.121642,81.6013575 205.869576,81.2404777 C205.61751,80.8795979 205.491478,80.4110207 205.491478,79.8347321 L205.491478,73.8844416 L204.273166,73.8844416 L204.273166,72.6507424 L205.491478,72.6507424 L205.491478,70.1413815 Z M213.540746,80.6655907 C214.543408,80.6655907 215.230978,80.2865327 215.603475,79.5284054 C215.975973,78.7702781 216.162219,77.9268392 216.162219,76.9980633 C216.162219,76.1588079 216.027786,75.4762238 215.758915,74.9502905 C215.333204,74.1222253 214.599423,73.7081988 213.55755,73.7081988 C212.633308,73.7081988 211.961142,74.0606808 211.541032,74.7656553 C211.120922,75.4706297 210.91087,76.3210624 210.91087,77.3169787 C210.91087,78.2737298 211.120922,79.0710104 211.541032,79.7088444 C211.961142,80.3466785 212.627707,80.6655907 213.540746,80.6655907 Z M213.599561,72.3905746 C214.759064,72.3905746 215.739306,72.7766262 216.540316,73.5487411 C217.341326,74.320856 217.741825,75.4566312 217.741825,76.9561007 C217.741825,78.4052149 217.388938,79.6025345 216.683153,80.5480955 C215.977368,81.4936565 214.882298,81.96643 213.397909,81.96643 C212.159985,81.96643 211.176942,81.5482073 210.448752,80.7117495 C209.720561,79.8752917 209.356471,78.7521052 209.356471,77.3421562 C209.356471,75.8314966 209.740166,74.6285821 210.507567,73.7333764 C211.274968,72.8381707 212.305622,72.3905746 213.599561,72.3905746 Z M229.160357,74.5222724 C229.866142,74.5222724 230.415077,74.4243608 230.80718,74.2285345 C231.423341,73.9208076 231.731417,73.3669074 231.731417,72.5668173 C231.731417,71.7611322 231.403737,71.2184219 230.748365,70.9386701 C230.378668,70.7820091 229.829733,70.7036798 229.101542,70.7036798 L226.118776,70.7036798 L226.118776,74.5222724 L229.160357,74.5222724 Z M229.723302,80.2123951 C230.74837,80.2123951 231.47935,79.9158627 231.916265,79.3227889 C232.190737,78.9479215 232.327971,78.4947304 232.327971,77.9632021 C232.327971,77.0679964 231.927472,76.4581467 231.126462,76.1336346 C230.700751,75.9601885 230.137812,75.8734668 229.437628,75.8734668 L226.118776,75.8734668 L226.118776,80.2123951 L229.723302,80.2123951 Z M224.480355,69.3105229 L229.782117,69.3105229 C231.227295,69.3105229 232.255149,69.7413342 232.865709,70.6029697 C233.224203,71.1121179 233.403447,71.6995878 233.403447,72.365397 C233.403447,73.143107 233.182192,73.7809314 232.739676,74.2788896 C232.510016,74.5418563 232.179535,74.7824392 231.748222,75.0006456 C232.381187,75.2412321 232.854504,75.5125873 233.168186,75.8147192 C233.722732,76.3518426 234,77.0931737 234,78.0387347 C234,78.8332297 233.750738,79.552181 233.252208,80.1956101 C232.507213,81.1579562 231.32252,81.639122 229.698095,81.639122 L224.480355,81.639122 L224.480355,69.3105229 Z" id="=-Send-10-from-A-to" fill="#15112C"></path>
            <g id="Group-10" transform="translate(151.000000, 7.000000)">
                <rect id="Rectangle" fill="#0F7B63" x="0" y="0.238840442" width="40" height="39.5061728"></rect>
                <g id="Group-2" transform="translate(10.000000, 12.584519)" fill="#FFFFFF">
                    <polygon id="T" points="11.9628906 0.152391975 11.9628906 1.84027778 7.12890625 1.84027778 7.12890625 14.3209877 5.15625 14.3209877 5.15625 1.84027778 0.322265625 1.84027778 0.322265625 0.152391975"></polygon>
                    <polygon id="N" points="11.4521484 7.93475116 12.8864746 7.93475116 17.4152832 15.1082658 17.4152832 7.93475116 18.5688477 7.93475116 18.5688477 16.7901235 17.2077637 16.7901235 12.6118164 9.62263696 12.6118164 16.7901235 11.4521484 16.7901235"></polygon>
                </g>
            </g>
            <g id="Group-10" transform="translate(11.000000, 57.000000)">
                <rect id="Rectangle" fill="#0F7B63" x="0" y="0.238840442" width="40" height="39.5061728"></rect>
                <g id="Group-2" transform="translate(10.000000, 12.584519)" fill="#FFFFFF">
                    <polygon id="T" points="11.9628906 0.152391975 11.9628906 1.84027778 7.12890625 1.84027778 7.12890625 14.3209877 5.15625 14.3209877 5.15625 1.84027778 0.322265625 1.84027778 0.322265625 0.152391975"></polygon>
                    <polygon id="N" points="11.4521484 7.93475116 12.8864746 7.93475116 17.4152832 15.1082658 17.4152832 7.93475116 18.5688477 7.93475116 18.5688477 16.7901235 17.2077637 16.7901235 12.6118164 9.62263696 12.6118164 16.7901235 11.4521484 16.7901235"></polygon>
                </g>
            </g>
            <g id="Fill-2" transform="translate(116.000000, 71.000000)" fill="#221B62">
                <path d="M10,0.758330888 L8.83343684,0.157058491 C8.64549138,0.475633068 8.44003786,0.742474097 8.22254754,0.950479694 C7.89577973,1.26302379 7.55135599,1.445132 7.198888,1.49172281 C6.5197705,1.58153715 6.04356313,1.3641338 5.35022033,0.903613385 C4.62197971,0.419950628 3.79643924,-0.128210701 2.6249963,0.0267450506 C1.91393843,0.120814396 1.26276876,0.505816073 0.689527696,1.17109726 C0.440244876,1.46043779 0.214473723,1.79027742 0,2.17861576 L1.16653358,2.77985754 C1.3544199,2.46112991 1.55969597,2.19410521 1.77697927,1.98588533 C2.09851241,1.6777493 2.44296572,1.49750839 2.80075711,1.4501523 C2.90349865,1.43659138 3.00156744,1.42988744 3.09629432,1.42988744 C3.63280395,1.42988744 4.06396948,1.64422963 4.64980924,2.03333326 C5.33031674,2.48531305 6.1770325,3.04776998 7.37544731,2.88932451 C8.09963623,2.79354091 8.75065803,2.41554929 9.3104723,1.76584939 C9.55987342,1.47641702 9.785615,1.14657739 10,0.758330888 Z M10,4.36944486 L8.83343684,3.76817445 C8.64549138,4.08674797 8.44003786,4.35355751 8.22254754,4.56156242 C7.89577973,4.87410548 7.55135599,5.05621309 7.198888,5.10286497 C6.5197705,5.19255656 6.04356313,4.97524576 5.35022033,4.51469626 C4.62200929,4.0310351 3.79661669,3.48296742 2.6249963,3.63783082 C1.91393843,3.73189986 1.26276876,4.11693088 0.689527696,4.78220986 C0.440244876,5.07151882 0.214503298,5.40135737 0,5.78969442 L1.16653358,6.39096483 C1.3544199,6.07223825 1.55969597,5.80521444 1.77697927,5.59699525 C2.09851241,5.28882962 2.4429953,5.10858931 2.80075711,5.06123337 C2.90349865,5.04767249 3.00153787,5.04096858 3.09629432,5.04096858 C3.63277438,5.04096858 4.0639399,5.25531006 4.64980924,5.64444302 C5.33034632,6.09642131 6.17735782,6.65896822 7.37544731,6.50040082 C8.09963623,6.40458694 8.75065803,6.02662717 9.3104723,5.37692942 C9.55984385,5.08755923 9.78558543,4.75772069 10,4.36944486 Z M10,7.8416831 L8.83343684,7.24041244 C8.64549138,7.5589861 8.44003786,7.82582635 8.22254754,8.03380074 C7.89577973,8.34634393 7.55135599,8.52845162 7.198888,8.5750729 C6.5197705,8.6649482 6.04356313,8.44748426 5.35022033,7.98693456 C4.62200929,7.50330382 3.79661669,6.95514407 2.6249963,7.11006877 C1.91393843,7.20413784 1.26276876,7.58916901 0.689527696,8.25444827 C0.440215302,8.54378797 0.214473723,8.87362665 0,9.26193325 L1.16653358,9.86320391 C1.3544199,9.54444658 1.55969597,9.27742266 1.77697927,9.06923399 C2.09851241,8.76106824 2.44296572,8.58082785 2.80075711,8.5334719 C2.90349865,8.51991101 3.00153787,8.5132071 3.09629432,8.5132071 C3.63277438,8.5132071 4.0639399,8.72754867 4.64980924,9.11665117 C5.33034632,9.56866026 6.17735782,10.1311462 7.37544731,9.97263994 C8.09963623,9.87682601 8.75065803,9.49883548 9.3104723,8.84916807 C9.55987342,8.55973655 9.785615,8.22989787 10,7.8416831 Z" id="Fill-1"></path>
            </g>
            <path d="M70.8159105,25.618001 L70.8159105,27.0245945 L62,27.0245945 L62,25.618001 L70.8159105,25.618001 Z M70.8159105,29.2098378 L70.8159105,30.6415489 L62,30.6415489 L62,29.2098378 L70.8159105,29.2098378 Z M77.6201367,20.2009419 L86.2331883,20.2009419 L86.2331883,21.7080063 L79.3021753,21.7080063 L79.3021753,25.4421769 L85.3963953,25.4421769 L85.3963953,26.9073783 L79.3021753,26.9073783 L79.3021753,32.5002616 L77.6201367,32.5002616 L77.6201367,20.2009419 Z M96.6466128,20 C95.7619181,21.7024331 95.1871569,22.9555167 94.922312,23.7592883 C94.5222271,24.9816911 94.3221877,26.3938521 94.3221877,27.9958137 C94.3221877,29.6145206 94.5504017,31.0936615 95.0068365,32.433281 C95.2885865,33.2593797 95.8436254,34.4482741 96.6719702,36 L95.6492231,36 C94.8265134,34.7273615 94.3165537,33.9152294 94.1193288,33.5635793 C93.9221038,33.2119292 93.7079771,32.7346969 93.4769422,32.1318681 C93.1613823,31.3057695 92.9416207,30.4238665 92.8176507,29.4861329 C92.7556657,29.0005209 92.7246737,28.5372427 92.7246737,28.0962847 C92.7246737,26.4440873 92.9866972,24.9733188 93.510752,23.6839351 C93.8432169,22.8634182 94.5363113,21.6354521 95.5900559,20 L96.6466128,20 Z M146.820385,34.2501308 C147.2092,34.1831498 147.482494,33.9124391 147.640273,33.4379906 C147.724798,33.1868119 147.76706,32.9440095 147.76706,32.7095761 C147.76706,32.6705039 147.765652,32.6356185 147.762834,32.6049189 C147.760017,32.5742193 147.752973,32.5393339 147.741703,32.5002616 L146.820385,32.5002616 L146.820385,30.6750392 L148.629211,30.6750392 L148.629211,32.3663004 C148.629211,33.0305284 148.493973,33.6138122 148.223493,34.1161695 C147.953013,34.6185268 147.485315,34.9283092 146.820385,35.0455259 L146.820385,34.2501308 Z M194.078061,36 C194.974026,34.2696582 195.551604,33.0082021 195.810814,32.2155939 C196.205264,31.0155182 196.402486,29.6089388 196.402486,27.9958137 C196.402486,26.3826886 196.174272,24.9063385 195.717837,23.566719 C195.436087,22.7406203 194.881048,21.5517259 194.052704,20 L195.075451,20 C195.94324,21.37311 196.468696,22.2201275 196.651833,22.541078 C196.834971,22.8620285 197.033602,23.3043753 197.247732,23.8681319 C197.518211,24.5658503 197.711207,25.2551859 197.826725,25.9361591 C197.942242,26.6171323 198,27.2729778 198,27.9037153 C198,29.5559127 197.735159,31.029472 197.205469,32.3244375 C196.873004,33.1561179 196.182727,34.3812931 195.134618,36 L194.078061,36 Z" id="=-F-(-,-)" fill="#15112C"></path>
            <g id="Group-6" transform="translate(99.000000, 6.000000)">
                <rect id="Rectangle" fill="#5645F5" x="0" y="0.23916852" width="44" height="44.5054945"></rect>
                <g id="Group" transform="translate(6.844444, 13.846154)" fill="#FFFFFF">
                    <path d="M2.24201389,10.2571257 C2.2865743,11.0619889 2.47436177,11.7155281 2.80538194,12.2177627 C3.43559343,13.157843 4.54640408,13.627876 6.13784722,13.627876 C6.85081375,13.627876 7.50011281,13.5248551 8.08576389,13.3188101 C9.21887141,12.9195979 9.78541667,12.2048901 9.78541667,11.1746652 C9.78541667,10.4019965 9.54670378,9.85147829 9.06927083,9.52309409 C8.58547212,9.2011488 7.82795655,8.9210606 6.79670139,8.68282109 L4.89652778,8.24819712 C3.65520213,7.96488526 2.77673869,7.65260301 2.26111111,7.311341 C1.36990295,6.71896167 0.924305556,5.8336254 0.924305556,4.65530563 C0.924305556,3.38040228 1.36035444,2.33409578 2.23246528,1.51635474 C3.10457612,0.6986137 4.33951747,0.289749313 5.93732639,0.289749313 C7.40781985,0.289749313 8.65708398,0.648712928 9.68515625,1.36665093 C10.7132285,2.08458893 11.2272569,3.23230667 11.2272569,4.8098386 L9.44166667,4.8098386 C9.34618008,4.05004771 9.14247841,3.46733548 8.83055556,3.06168441 C8.25127025,2.32121024 7.26777314,1.95097871 5.88003472,1.95097871 C4.75965875,1.95097871 3.9544006,2.18921465 3.46423611,2.66569368 C2.97407162,3.14217271 2.72899306,3.69591031 2.72899306,4.32692308 C2.72899306,5.02232491 3.01544852,5.53099084 3.58836806,5.85293613 C3.96394864,6.05898111 4.81376653,6.31653348 6.13784722,6.62560096 L8.10486111,7.07954155 C9.05336122,7.29846435 9.78541409,7.59786898 10.3010417,7.97776442 C11.1922498,8.64097172 11.6378472,9.6035737 11.6378472,10.8655992 C11.6378472,12.4366923 11.0728934,13.5602645 9.94296875,14.2363496 C8.81304412,14.9124347 7.50012322,15.2504722 6.00416667,15.2504722 C4.25994498,15.2504722 2.89450725,14.7997555 1.9078125,13.8983087 C0.921117752,13.0033008 0.437326293,11.7895853 0.456423611,10.2571257 L2.24201389,10.2571257 Z" id="S"></path>
                    <path d="M13.6421007,8.44015604 L15.044553,8.44015604 L19.4727214,15.6235244 L19.4727214,8.44015604 L20.600651,8.44015604 L20.600651,17.3076923 L19.2698134,17.3076923 L14.7759983,10.1303604 L14.7759983,17.3076923 L13.6421007,17.3076923 L13.6421007,8.44015604 Z M22.0448785,13.3055299 L25.0407552,13.3055299 L25.0407552,14.4222721 L22.0448785,14.4222721 L22.0448785,13.3055299 Z M26.7774089,11.1867381 L26.7774089,10.3537088 C27.5532374,10.2772468 28.0943199,10.1494767 28.4006727,9.9703946 C28.7070255,9.79131253 28.9357921,9.36775961 29.0869792,8.69972313 L29.9344184,8.69972313 L29.9344184,17.3076923 L28.7885851,17.3076923 L28.7885851,11.1867381 L26.7774089,11.1867381 Z" id="N-1"></path>
                </g>
            </g>
            <g id="Group-12" transform="translate(11.000000, 6.000000)">
                <rect id="Rectangle" fill="#221B62" x="0" y="0.23916852" width="44" height="44.5054945"></rect>
                <g id="Group" transform="translate(11.733333, 13.846154)" fill="#FFFFFF">
                    <path d="M2.24201389,10.2571257 C2.2865743,11.0619889 2.47436177,11.7155281 2.80538194,12.2177627 C3.43559343,13.157843 4.54640408,13.627876 6.13784722,13.627876 C6.85081375,13.627876 7.50011281,13.5248551 8.08576389,13.3188101 C9.21887141,12.9195979 9.78541667,12.2048901 9.78541667,11.1746652 C9.78541667,10.4019965 9.54670378,9.85147829 9.06927083,9.52309409 C8.58547212,9.2011488 7.82795655,8.9210606 6.79670139,8.68282109 L4.89652778,8.24819712 C3.65520213,7.96488526 2.77673869,7.65260301 2.26111111,7.311341 C1.36990295,6.71896167 0.924305556,5.8336254 0.924305556,4.65530563 C0.924305556,3.38040228 1.36035444,2.33409578 2.23246528,1.51635474 C3.10457612,0.6986137 4.33951747,0.289749313 5.93732639,0.289749313 C7.40781985,0.289749313 8.65708398,0.648712928 9.68515625,1.36665093 C10.7132285,2.08458893 11.2272569,3.23230667 11.2272569,4.8098386 L9.44166667,4.8098386 C9.34618008,4.05004771 9.14247841,3.46733548 8.83055556,3.06168441 C8.25127025,2.32121024 7.26777314,1.95097871 5.88003472,1.95097871 C4.75965875,1.95097871 3.9544006,2.18921465 3.46423611,2.66569368 C2.97407162,3.14217271 2.72899306,3.69591031 2.72899306,4.32692308 C2.72899306,5.02232491 3.01544852,5.53099084 3.58836806,5.85293613 C3.96394864,6.05898111 4.81376653,6.31653348 6.13784722,6.62560096 L8.10486111,7.07954155 C9.05336122,7.29846435 9.78541409,7.59786898 10.3010417,7.97776442 C11.1922498,8.64097172 11.6378472,9.6035737 11.6378472,10.8655992 C11.6378472,12.4366923 11.0728934,13.5602645 9.94296875,14.2363496 C8.81304412,14.9124347 7.50012322,15.2504722 6.00416667,15.2504722 C4.25994498,15.2504722 2.89450725,14.7997555 1.9078125,13.8983087 C0.921117752,13.0033008 0.437326293,11.7895853 0.456423611,10.2571257 L2.24201389,10.2571257 Z" id="S"></path>
                    <polygon id="N" points="13.6421007 8.44015604 15.044553 8.44015604 19.4727214 15.6235244 19.4727214 8.44015604 20.600651 8.44015604 20.600651 17.3076923 19.2698134 17.3076923 14.7759983 10.1303604 14.7759983 17.3076923 13.6421007 17.3076923"></polygon>
                </g>
            </g>
        </g>
        <text id="Transactions-Change" font-family="Helvetica" font-size="40" font-weight="normal" fill="#15112C">
            <tspan x="40" y="77">Transactions Change State</tspan>
        </text>
    </g>
</svg>